<?xml version="1.0" encoding="UTF-8"?>
<svg version="1.1" xmlns="http://www.w3.org/2000/svg" width="700" height="115">
<path d="M0 0 C1.26070313 0.26619141 2.52140625 0.53238281 3.8203125 0.80664062 C5.73070313 1.22913086 5.73070313 1.22913086 7.6796875 1.66015625 C9.00498537 1.9418064 10.33050587 2.22241107 11.65625 2.50195312 C21.2085217 4.54957335 21.2085217 4.54957335 23.5546875 5.72265625 C23.5546875 6.71265625 23.5546875 7.70265625 23.5546875 8.72265625 C22.7090625 9.50640625 21.8634375 10.29015625 20.9921875 11.09765625 C18.26370038 13.45410638 18.26370038 13.45410638 18.4921875 16.41015625 C19.3669577 18.86518021 19.3669577 18.86518021 21.6171875 20.03515625 C22.2565625 20.26203125 22.8959375 20.48890625 23.5546875 20.72265625 C23.2421875 22.59765625 23.2421875 22.59765625 22.5546875 24.72265625 C21.5646875 25.38265625 20.5746875 26.04265625 19.5546875 26.72265625 C18.64069723 30.30245145 18.37626822 32.18739841 19.5546875 35.72265625 C20.4003125 36.21765625 21.2459375 36.71265625 22.1171875 37.22265625 C22.9215625 37.71765625 23.7259375 38.21265625 24.5546875 38.72265625 C24.5546875 39.71265625 24.5546875 40.70265625 24.5546875 41.72265625 C23.3171875 42.58890625 23.3171875 42.58890625 22.0546875 43.47265625 C19.13507101 45.58357711 19.13507101 45.58357711 19.2421875 49.47265625 C19.3453125 50.54515625 19.4484375 51.61765625 19.5546875 52.72265625 C21.5346875 53.21765625 21.5346875 53.21765625 23.5546875 53.72265625 C23.2421875 55.59765625 23.2421875 55.59765625 22.5546875 57.72265625 C21.5646875 58.38265625 20.5746875 59.04265625 19.5546875 59.72265625 C18.40804725 64.32589415 18.40804725 64.32589415 19.5546875 68.72265625 C21.52991596 69.77073666 23.52950259 70.77469735 25.5546875 71.72265625 C25.12922037 74.19036559 24.86773488 75.43465266 22.9921875 77.16015625 C21.31368671 78.69017698 21.31368671 78.69017698 21.1796875 81.28515625 C21.3034375 82.08953125 21.4271875 82.89390625 21.5546875 83.72265625 C23.0396875 84.71265625 23.0396875 84.71265625 24.5546875 85.72265625 C24.3671875 87.53515625 24.3671875 87.53515625 23.5546875 89.72265625 C21.88802083 90.72265625 20.22135417 91.72265625 18.5546875 92.72265625 C18.48233887 93.33407471 18.40999023 93.94549316 18.33544922 94.57543945 C17.05333106 98.10146484 13.76990593 99.05161808 10.5625 100.578125 C9.86075653 100.92523026 9.15901306 101.27233551 8.43600464 101.62995911 C6.19012837 102.73661803 3.93517652 103.82324594 1.6796875 104.91015625 C0.16735692 105.65305265 -1.34437006 106.39717917 -2.85546875 107.14257812 C-17.48333514 114.32379084 -17.48333514 114.32379084 -24.4453125 113.72265625 C-27.67809258 112.54104999 -30.66184944 110.96594 -33.6953125 109.34765625 C-34.55850098 108.90083496 -35.42168945 108.45401367 -36.31103516 107.99365234 C-38.11793716 107.05558573 -39.92145514 106.11097453 -41.72167969 105.16015625 C-44.39533957 103.74903135 -47.07874136 102.35840728 -49.765625 100.97265625 C-51.45101972 100.09861758 -53.13593428 99.22365224 -54.8203125 98.34765625 C-55.59793945 97.94369629 -56.37556641 97.53973633 -57.17675781 97.12353516 C-68.48074475 91.16950787 -68.48074475 91.16950787 -71.4453125 86.72265625 C-72.06764149 83.63494703 -72.07010442 80.81047085 -71.4453125 77.72265625 C-70.02002129 75.76035731 -68.42687046 74.14275823 -66.734375 72.41015625 C-65.09635045 70.59534826 -65.09635045 70.59534826 -65.2578125 67.09765625 C-66.18586635 63.5799632 -66.18586635 63.5799632 -69.0078125 61.47265625 C-72.30413044 57.75373344 -72.09394932 55.09692969 -71.87890625 50.26171875 C-71.4453125 47.72265625 -71.4453125 47.72265625 -69.5703125 45.03515625 C-67.4453125 43.72265625 -67.4453125 43.72265625 -65.4453125 43.72265625 C-65.45427235 36.52540266 -65.45427235 36.52540266 -69.0078125 30.59765625 C-71.43105838 27.7394688 -71.86826675 27.16010998 -72.0703125 23.66015625 C-71.29158682 18.75418444 -70.28461138 17.81514831 -66.4453125 14.72265625 C-63.09002124 13.10736418 -59.62446841 11.91961379 -56.09765625 10.734375 C-55.08997696 10.38631302 -54.08229767 10.03825104 -53.04408264 9.67964172 C-50.91415244 8.94887822 -48.7816207 8.22565926 -46.64672852 7.50952148 C-43.40988785 6.41927588 -40.18657995 5.29446707 -36.96289062 4.16601562 C-34.8835388 3.45750027 -32.80348077 2.75105348 -30.72265625 2.046875 C-29.77220932 1.7125798 -28.82176239 1.37828461 -27.84251404 1.03385925 C-18.50298714 -2.04107336 -9.56437427 -2.05665833 0 0 Z M-33.4453125 8.72265625 C-33.7753125 9.38265625 -34.1053125 10.04265625 -34.4453125 10.72265625 C-33.4553125 10.39265625 -32.4653125 10.06265625 -31.4453125 9.72265625 C-32.1053125 9.39265625 -32.7653125 9.06265625 -33.4453125 8.72265625 Z M-40.4453125 12.72265625 C-40.7753125 13.38265625 -41.1053125 14.04265625 -41.4453125 14.72265625 C-40.4553125 14.39265625 -39.4653125 14.06265625 -38.4453125 13.72265625 C-39.1053125 13.39265625 -39.7653125 13.06265625 -40.4453125 12.72265625 Z M-15.4453125 13.72265625 C-16.1053125 14.38265625 -16.7653125 15.04265625 -17.4453125 15.72265625 C-15.7953125 15.39265625 -14.1453125 15.06265625 -12.4453125 14.72265625 C-13.4353125 14.39265625 -14.4253125 14.06265625 -15.4453125 13.72265625 Z M-30.4453125 19.72265625 C-27.8053125 19.39265625 -25.1653125 19.06265625 -22.4453125 18.72265625 C-25.84785739 17.50746165 -27.37782376 17.86025237 -30.4453125 19.72265625 Z M-40.4453125 19.72265625 C-40.4453125 20.05265625 -40.4453125 20.38265625 -40.4453125 20.72265625 C-37.1453125 20.72265625 -33.8453125 20.72265625 -30.4453125 20.72265625 C-30.4453125 20.39265625 -30.4453125 20.06265625 -30.4453125 19.72265625 C-33.7453125 19.72265625 -37.0453125 19.72265625 -40.4453125 19.72265625 Z M-54.4453125 21.72265625 C-56.08872683 23.15757892 -56.08872683 23.15757892 -57.4453125 24.72265625 C-56.69507813 25.09777344 -55.94484375 25.47289062 -55.171875 25.859375 C-54.14835937 26.37113281 -53.12484375 26.88289063 -52.0703125 27.41015625 C-50.41902344 28.22419922 -50.41902344 28.22419922 -48.734375 29.0546875 C-46.7443091 30.06390144 -44.77302226 31.11331139 -42.84375 32.234375 C-36.4932983 35.84399657 -30.72792346 36.81735252 -23.4453125 35.72265625 C-22.7853125 35.06265625 -22.1253125 34.40265625 -21.4453125 33.72265625 C-22.19554687 33.7690625 -22.94578125 33.81546875 -23.71875 33.86328125 C-34.39353041 34.23972187 -42.21687237 31.52006331 -50.4453125 24.72265625 C-50.4453125 24.06265625 -50.4453125 23.40265625 -50.4453125 22.72265625 C-52.28232039 21.95023356 -52.28232039 21.95023356 -54.4453125 21.72265625 Z M-14.4453125 23.72265625 C-15.1053125 24.38265625 -15.7653125 25.04265625 -16.4453125 25.72265625 C-15.7853125 25.72265625 -15.1253125 25.72265625 -14.4453125 25.72265625 C-14.7753125 26.71265625 -15.1053125 27.70265625 -15.4453125 28.72265625 C-13.1353125 28.06265625 -10.8253125 27.40265625 -8.4453125 26.72265625 C-9.7653125 26.39265625 -11.0853125 26.06265625 -12.4453125 25.72265625 C-12.4453125 25.06265625 -12.4453125 24.40265625 -12.4453125 23.72265625 C-13.1053125 23.72265625 -13.7653125 23.72265625 -14.4453125 23.72265625 Z M-13.4453125 29.72265625 C-14.1053125 30.38265625 -14.7653125 31.04265625 -15.4453125 31.72265625 C-15.4453125 32.38265625 -15.4453125 33.04265625 -15.4453125 33.72265625 C-16.9453125 35.34765625 -16.9453125 35.34765625 -18.4453125 36.72265625 C-16.40975662 38.01697989 -16.40975662 38.01697989 -13.8828125 37.03515625 C-11.30990129 35.97287612 -11.30990129 35.97287612 -10.5703125 33.72265625 C-10.27270342 31.64942815 -10.27270342 31.64942815 -11.4453125 29.72265625 C-12.1053125 29.72265625 -12.7653125 29.72265625 -13.4453125 29.72265625 Z M-24.4453125 31.72265625 C-21.66417194 34.05656828 -21.66417194 34.05656828 -18.7578125 33.34765625 C-17.9946875 33.14140625 -17.2315625 32.93515625 -16.4453125 32.72265625 C-16.7753125 31.73265625 -17.1053125 30.74265625 -17.4453125 29.72265625 C-20.091846 29.72265625 -22.0261288 30.70405259 -24.4453125 31.72265625 Z M-51.4453125 31.72265625 C-51.7753125 32.38265625 -52.1053125 33.04265625 -52.4453125 33.72265625 C-49.9703125 34.21765625 -49.9703125 34.21765625 -47.4453125 34.72265625 C-48.1053125 33.73265625 -48.7653125 32.74265625 -49.4453125 31.72265625 C-50.1053125 31.72265625 -50.7653125 31.72265625 -51.4453125 31.72265625 Z M1.5546875 33.72265625 C3.5346875 34.71265625 3.5346875 34.71265625 5.5546875 35.72265625 C6.5446875 35.06265625 7.5346875 34.40265625 8.5546875 33.72265625 C8.5546875 33.06265625 8.5546875 32.40265625 8.5546875 31.72265625 C5.908154 31.72265625 3.9738712 32.70405259 1.5546875 33.72265625 Z M6.5546875 37.72265625 C5.8946875 38.38265625 5.2346875 39.04265625 4.5546875 39.72265625 C5.5446875 39.72265625 6.5346875 39.72265625 7.5546875 39.72265625 C7.2246875 39.06265625 6.8946875 38.40265625 6.5546875 37.72265625 Z M-40.4453125 44.72265625 C-39.7853125 45.38265625 -39.1253125 46.04265625 -38.4453125 46.72265625 C-38.4453125 48.04265625 -38.4453125 49.36265625 -38.4453125 50.72265625 C-35.15835017 51.52218763 -33.73508058 51.81924561 -30.4453125 50.72265625 C-28.77909634 50.68390704 -27.11137078 50.67762765 -25.4453125 50.72265625 C-25.7753125 50.06265625 -26.1053125 49.40265625 -26.4453125 48.72265625 C-25.7853125 48.06265625 -25.1253125 47.40265625 -24.4453125 46.72265625 C-25.01378906 46.66207031 -25.58226562 46.60148437 -26.16796875 46.5390625 C-30.94312287 46.02089052 -35.694543 45.43021766 -40.4453125 44.72265625 Z M-1.0703125 52.72265625 C-2.29621094 53.27953125 -2.29621094 53.27953125 -3.546875 53.84765625 C-4.17335938 54.13640625 -4.79984375 54.42515625 -5.4453125 54.72265625 C-5.1153125 55.71265625 -4.7853125 56.70265625 -4.4453125 57.72265625 C-5.4353125 58.05265625 -6.4253125 58.38265625 -7.4453125 58.72265625 C-6.4553125 59.21765625 -6.4553125 59.21765625 -5.4453125 59.72265625 C-3.00198524 58.64747507 -0.67776727 57.52457059 1.6796875 56.28515625 C2.66775391 55.77758789 2.66775391 55.77758789 3.67578125 55.25976562 C5.30575297 54.42115699 6.93070659 53.57280814 8.5546875 52.72265625 C4.37345472 49.93516773 3.26725768 50.73976703 -1.0703125 52.72265625 Z M-29.4453125 53.72265625 C-25.4453125 54.72265625 -25.4453125 54.72265625 -25.4453125 54.72265625 Z M-55.4453125 57.72265625 C-54.81625 58.07457031 -54.1871875 58.42648438 -53.5390625 58.7890625 C-47.57621602 62.22847545 -42.44902283 65.99848281 -37.4453125 70.72265625 C-37.1153125 69.73265625 -36.7853125 68.74265625 -36.4453125 67.72265625 C-37.4353125 67.10390625 -38.4253125 66.48515625 -39.4453125 65.84765625 C-40.4353125 65.14640625 -41.4253125 64.44515625 -42.4453125 63.72265625 C-42.4453125 63.06265625 -42.4453125 62.40265625 -42.4453125 61.72265625 C-44.4253125 60.73265625 -46.4053125 59.74265625 -48.4453125 58.72265625 C-48.1153125 58.06265625 -47.7853125 57.40265625 -47.4453125 56.72265625 C-50.90952956 55.48543587 -52.28759048 55.98458237 -55.4453125 57.72265625 Z M-56.4453125 60.72265625 C-56.7753125 61.38265625 -57.1053125 62.04265625 -57.4453125 62.72265625 C-55.48064837 63.79040849 -53.47675891 64.7881909 -51.4453125 65.72265625 C-50.7853125 65.39265625 -50.1253125 65.06265625 -49.4453125 64.72265625 C-52.70694208 62.0707362 -52.70694208 62.0707362 -56.4453125 60.72265625 Z M-21.4453125 69.72265625 C-21.4453125 70.38265625 -21.4453125 71.04265625 -21.4453125 71.72265625 C-25.0753125 72.05265625 -28.7053125 72.38265625 -32.4453125 72.72265625 C-29.56670026 75.08488111 -29.56670026 75.08488111 -26.0078125 74.47265625 C-21.97921714 73.63894075 -21.97921714 73.63894075 -18.4453125 71.72265625 C-18.1153125 70.73265625 -17.7853125 69.74265625 -17.4453125 68.72265625 C-19.5198481 68.57358505 -19.5198481 68.57358505 -21.4453125 69.72265625 Z M0.5546875 68.72265625 C0.8846875 69.71265625 1.2146875 70.70265625 1.5546875 71.72265625 C0.1315625 72.15578125 0.1315625 72.15578125 -1.3203125 72.59765625 C-4.49742828 73.49090734 -4.49742828 73.49090734 -6.4453125 75.72265625 C-2.31779801 75.11566882 0.8868023 73.68454834 4.5546875 71.72265625 C3.8946875 71.39265625 3.2346875 71.06265625 2.5546875 70.72265625 C2.5546875 70.06265625 2.5546875 69.40265625 2.5546875 68.72265625 C1.8946875 68.72265625 1.2346875 68.72265625 0.5546875 68.72265625 Z M-57.4453125 73.72265625 C-56.11964371 77.69966262 -54.44824951 78.08513505 -50.86523438 79.92773438 C-49.76018555 80.4759082 -49.76018555 80.4759082 -48.6328125 81.03515625 C-47.54516602 81.61233398 -47.54516602 81.61233398 -46.43554688 82.20117188 C-45.73107422 82.55501953 -45.02660156 82.90886719 -44.30078125 83.2734375 C-43.65778076 83.59997314 -43.01478027 83.92650879 -42.35229492 84.26293945 C-40.35640037 84.94005874 -40.35640037 84.94005874 -38.2043457 83.81323242 C-37.62386475 83.45334229 -37.04338379 83.09345215 -36.4453125 82.72265625 C-39.75645663 81.21964998 -43.06944622 79.72075669 -46.3828125 78.22265625 C-47.32833984 77.79339844 -48.27386719 77.36414063 -49.24804688 76.921875 C-50.14716797 76.51582031 -51.04628906 76.10976562 -51.97265625 75.69140625 C-52.80531006 75.31435547 -53.63796387 74.93730469 -54.49584961 74.54882812 C-56.24588391 73.65762285 -56.24588391 73.65762285 -57.4453125 73.72265625 Z M-32.4453125 81.72265625 C-32.4453125 82.38265625 -32.4453125 83.04265625 -32.4453125 83.72265625 C-33.4353125 84.21765625 -33.4353125 84.21765625 -34.4453125 84.72265625 C-30.57767804 86.59808979 -30.57767804 86.59808979 -26.4453125 85.72265625 C-27.1053125 85.72265625 -27.7653125 85.72265625 -28.4453125 85.72265625 C-28.1153125 84.73265625 -27.7853125 83.74265625 -27.4453125 82.72265625 C-29.0953125 82.39265625 -30.7453125 82.06265625 -32.4453125 81.72265625 Z M-49.4453125 86.72265625 C-50.1053125 87.38265625 -50.7653125 88.04265625 -51.4453125 88.72265625 C-50.32382812 89.42841797 -50.32382812 89.42841797 -49.1796875 90.1484375 C-48.19484375 90.77105469 -47.21 91.39367187 -46.1953125 92.03515625 C-44.73351562 92.95748047 -44.73351562 92.95748047 -43.2421875 93.8984375 C-40.89797537 95.42741384 -38.65747218 97.01086602 -36.4453125 98.72265625 C-36.4453125 98.06265625 -36.4453125 97.40265625 -36.4453125 96.72265625 C-35.7853125 96.39265625 -35.1253125 96.06265625 -34.4453125 95.72265625 C-37.0853125 94.40265625 -39.7253125 93.08265625 -42.4453125 91.72265625 C-42.4453125 90.73265625 -42.4453125 89.74265625 -42.4453125 88.72265625 C-45.09270166 87.26202775 -46.33979584 86.72265625 -49.4453125 86.72265625 Z M-51.4453125 91.72265625 C-51.7753125 92.38265625 -52.1053125 93.04265625 -52.4453125 93.72265625 C-50.06918385 95.33172733 -50.06918385 95.33172733 -47.4453125 96.72265625 C-46.7853125 96.39265625 -46.1253125 96.06265625 -45.4453125 95.72265625 C-47.4253125 94.40265625 -49.4053125 93.08265625 -51.4453125 91.72265625 Z M-36.4453125 98.72265625 C-35.1253125 100.37265625 -33.8053125 102.02265625 -32.4453125 103.72265625 C-31.7853125 103.39265625 -31.1253125 103.06265625 -30.4453125 102.72265625 C-31.73496426 101.34702771 -33.07220543 100.01499232 -34.4453125 98.72265625 C-35.1053125 98.72265625 -35.7653125 98.72265625 -36.4453125 98.72265625 Z M-30.4453125 103.72265625 C-30.1153125 104.38265625 -29.7853125 105.04265625 -29.4453125 105.72265625 C-28.7853125 105.39265625 -28.1253125 105.06265625 -27.4453125 104.72265625 C-28.4353125 104.39265625 -29.4253125 104.06265625 -30.4453125 103.72265625 Z M-27.4453125 105.72265625 C-27.4453125 106.05265625 -27.4453125 106.38265625 -27.4453125 106.72265625 C-25.4653125 106.72265625 -23.4853125 106.72265625 -21.4453125 106.72265625 C-21.4453125 106.39265625 -21.4453125 106.06265625 -21.4453125 105.72265625 C-23.4253125 105.72265625 -25.4053125 105.72265625 -27.4453125 105.72265625 Z " fill="#B82562" transform="translate(71.4453125,1.27734375)"/>
<path d="M0 0 C0.515625 0.495 1.03125 0.99 1.5625 1.5 C0.8125 8.25 0.8125 8.25 -1.4375 10.5 C-1.11423447 14.09679066 -1.11423447 14.09679066 -0.4375 17.5 C0.2225 17.17 0.8825 16.84 1.5625 16.5 C1.830625 15.38625 2.09875 14.2725 2.375 13.125 C3.5625 9.5 3.5625 9.5 5.8125 7.5 C9.18773963 6.27264013 11.14305807 6.48971034 14.5625 7.5 C14.8925 8.16 15.2225 8.82 15.5625 9.5 C15.954375 9.025625 16.34625 8.55125 16.75 8.0625 C18.97058374 6.14820367 20.69625709 5.88733012 23.5625 5.5 C23.8925 3.19 24.2225 0.88 24.5625 -1.5 C26.2125 -1.5 27.8625 -1.5 29.5625 -1.5 C29.77682579 5.14409958 29.07483701 11.03205867 27.5625 17.5 C28.2225 17.5 28.8825 17.5 29.5625 17.5 C29.500625 16.5925 29.43875 15.685 29.375 14.75 C29.5625 11.5 29.5625 11.5 30.625 9.1875 C33.45464735 6.72296844 35.87752937 6.69394582 39.5625 6.5 C42 6.9375 42 6.9375 43.5625 7.5 C43.706875 6.200625 43.85125 4.90125 44 3.5625 C44.4375 -0.375 44.4375 -0.375 45.5625 -1.5 C51.09191176 -1.73529412 51.09191176 -1.73529412 53.5625 -0.5 C55.22444453 -0.14386903 56.890951 0.19208308 58.5625 0.5 C58.2325 1.82 57.9025 3.14 57.5625 4.5 C55.48696352 5.0534764 53.71884036 5.5 51.5625 5.5 C51.2325 5.83 50.9025 6.16 50.5625 6.5 C52.8725 6.5 55.1825 6.5 57.5625 6.5 C57.2325 9.8 56.9025 13.1 56.5625 16.5 C57.2225 16.5 57.8825 16.5 58.5625 16.5 C58.8925 13.53 59.2225 10.56 59.5625 7.5 C67.99107143 6.21428571 67.99107143 6.21428571 72.5625 7.5 C72.2325 10.8 71.9025 14.1 71.5625 17.5 C72.2225 17.5 72.8825 17.5 73.5625 17.5 C73.8925 14.2 74.2225 10.9 74.5625 7.5 C77.5325 7.005 77.5325 7.005 80.5625 6.5 C80.70535714 13.92857143 80.70535714 13.92857143 79.5625 17.5 C80.2225 17.5 80.8825 17.5 81.5625 17.5 C81.8925 14.2 82.2225 10.9 82.5625 7.5 C87.24746425 6.66711747 90.94998128 6.22758104 95.5625 7.5 C95.6875 14.125 95.6875 14.125 94.5625 17.5 C95.2225 17.5 95.8825 17.5 96.5625 17.5 C96.0675 18.985 96.0675 18.985 95.5625 20.5 C93.90635343 20.88218767 92.23792976 21.21395102 90.5625 21.5 C89.5625 20.5 89.5625 20.5 89.46484375 18.43359375 C89.49739583 16.12239583 89.52994792 13.81119792 89.5625 11.5 C88.9025 14.47 88.2425 17.44 87.5625 20.5 C83.4016642 21.23970414 79.93230653 21.77396131 75.75 20.9375 C72.40524786 20.47841637 69.84533243 20.79653591 66.5625 21.5 C66.2325 19.85 65.9025 18.2 65.5625 16.5 C65.0675 17.985 65.0675 17.985 64.5625 19.5 C59.26416919 21.68844099 56.22599722 21.63269944 50.5625 20.5 C50.5625 16.87 50.5625 13.24 50.5625 9.5 C49.9025 9.5 49.2425 9.5 48.5625 9.5 C48.51351562 10.31984375 48.46453125 11.1396875 48.4140625 11.984375 C48.33929688 13.06203125 48.26453125 14.1396875 48.1875 15.25 C48.11789063 16.31734375 48.04828125 17.3846875 47.9765625 18.484375 C47.5896777 21.30206432 47.00563834 23.0830366 45.5625 25.5 C43.9125 25.17 42.2625 24.84 40.5625 24.5 C41.2225 19.88 41.8825 15.26 42.5625 10.5 C41.9025 11.82 41.2425 13.14 40.5625 14.5 C38.4375 15.75 38.4375 15.75 36.5625 16.5 C37.8825 16.5 39.2025 16.5 40.5625 16.5 C40.2325 17.82 39.9025 19.14 39.5625 20.5 C32.9375 21.75 32.9375 21.75 29.5625 19.5 C28.5725 20.16 27.5825 20.82 26.5625 21.5 C24.08203125 21.6953125 24.08203125 21.6953125 21.375 21.625 C20.47394531 21.60695313 19.57289063 21.58890625 18.64453125 21.5703125 C17.95746094 21.54710938 17.27039063 21.52390625 16.5625 21.5 C16.2325 20.51 15.9025 19.52 15.5625 18.5 C14.923125 19.015625 14.28375 19.53125 13.625 20.0625 C9.85808966 21.83064159 7.79297701 21.38440111 3.7890625 20.76171875 C0.90691897 20.42294048 -1.62441948 20.85082757 -4.4375 21.5 C-5.7575 19.19 -7.0775 16.88 -8.4375 14.5 C-9.0975 16.48 -9.7575 18.46 -10.4375 20.5 C-12.0875 20.83 -13.7375 21.16 -15.4375 21.5 C-14.87796319 15.7974866 -14.29239246 10.10070379 -13.62109375 4.41015625 C-13.38966319 2.32212012 -13.38966319 2.32212012 -13.4375 -0.5 C-8.86969844 -1.9616965 -4.18434991 -2.57498456 0 0 Z M-6.4375 1.5 C-6.7675 3.81 -7.0975 6.12 -7.4375 8.5 C-6.4475 7.84 -5.4575 7.18 -4.4375 6.5 C-4.7675 4.85 -5.0975 3.2 -5.4375 1.5 C-5.7675 1.5 -6.0975 1.5 -6.4375 1.5 Z M8.5625 9.5 C8.8925 10.49 9.2225 11.48 9.5625 12.5 C9.8925 11.51 10.2225 10.52 10.5625 9.5 C9.9025 9.5 9.2425 9.5 8.5625 9.5 Z M21.5625 9.5 C20.9025 11.81 20.2425 14.12 19.5625 16.5 C20.5525 16.83 21.5425 17.16 22.5625 17.5 C22.8925 14.86 23.2225 12.22 23.5625 9.5 C22.9025 9.5 22.2425 9.5 21.5625 9.5 Z M35.5625 9.5 C36.5625 12.5 36.5625 12.5 36.5625 12.5 Z M13.5625 13.5 C11.0875 14.985 11.0875 14.985 8.5625 16.5 C11.50979537 17.65811388 11.50979537 17.65811388 14.5625 17.5 C14.2325 16.18 13.9025 14.86 13.5625 13.5 Z " fill="#880733" transform="translate(140.4375,71.5)"/>
<path d="M0 0 C0.66 0.66 1.32 1.32 2 2 C1.625 4.625 1.625 4.625 1 7 C-0.65 6.67 -2.3 6.34 -4 6 C-4.33 5.01 -4.66 4.02 -5 3 C-5.33 4.65 -5.66 6.3 -6 8 C-5.01 8.33 -4.02 8.66 -3 9 C-3.33 9.99 -3.66 10.98 -4 12 C-4.99 12.33 -5.98 12.66 -7 13 C-7 14.32 -7 15.64 -7 17 C-5.5199159 16.88637738 -4.04089926 16.75877092 -2.5625 16.625 C-1.73878906 16.55539063 -0.91507812 16.48578125 -0.06640625 16.4140625 C0.61550781 16.27742188 1.29742187 16.14078125 2 16 C3.35026777 13.87060172 3.35026777 13.87060172 2.0625 10.875 C1.711875 9.92625 1.36125 8.9775 1 8 C3.875 7.375 3.875 7.375 7 7 C7.66 7.66 8.32 8.32 9 9 C9.33 8.34 9.66 7.68 10 7 C10.99 7.33 11.98 7.66 13 8 C12.690625 8.53625 12.38125 9.0725 12.0625 9.625 C10.82172561 12.3984957 10.4090325 15.00042837 10 18 C10.66 17.67 11.32 17.34 12 17 C12.53613267 15.17293875 12.53613267 15.17293875 12.875 13.0625 C13.77456764 9.20127889 13.77456764 9.20127889 15.75 7.4375 C18.76895073 6.8504818 21.03681544 7.22699533 24 8 C24.66 8.66 25.32 9.32 26 10 C26.53625 9.484375 27.0725 8.96875 27.625 8.4375 C30 7 30 7 33.1875 7.25 C36 8 36 8 37 9 C37.66 5.7 38.32 2.4 39 -1 C40.98 -1 42.96 -1 45 -1 C44.37679879 5.43974581 43.35991738 11.67572401 42 18 C42.66 18 43.32 18 44 18 C44.99 11.73 45.98 5.46 47 -1 C48.98 -1 50.96 -1 53 -1 C52.68926976 1.22941405 52.37634375 3.45852212 52.0625 5.6875 C51.88847656 6.92886719 51.71445312 8.17023438 51.53515625 9.44921875 C51.10177103 12.32474548 50.60350718 15.15644813 50 18 C50.66 18 51.32 18 52 18 C52.0928125 16.1128125 52.0928125 16.1128125 52.1875 14.1875 C52.59941047 10.96086796 52.72750888 10.2569202 55.1875 7.9375 C58.54205504 6.81931499 60.60846163 7.13239716 64 8 C64.3125 10.8125 64.3125 10.8125 64 14 C61.5 15.875 61.5 15.875 59 17 C60.65 17.33 62.3 17.66 64 18 C62.4375 20.0625 62.4375 20.0625 60 22 C56.375 21.75 56.375 21.75 53 21 C50.2716232 21 47.68345937 21.53331141 45 22 C45 21.34 45 20.68 45 20 C44.4225 20.350625 43.845 20.70125 43.25 21.0625 C40.58590824 22.17253823 39.67998068 21.8645099 37 21 C33.89614387 20.90362735 33.89614387 20.90362735 30.5 21.6875 C27 22 27 22 25.0625 20.5625 C24.711875 20.046875 24.36125 19.53125 24 19 C23.443125 19.495 22.88625 19.99 22.3125 20.5 C19.57241836 22.27735025 18.20626976 22.32884818 15 22 C14.01 21.67 13.02 21.34 12 21 C11.175 21.185625 10.35 21.37125 9.5 21.5625 C7 22 7 22 4 20 C3.38125 20.350625 2.7625 20.70125 2.125 21.0625 C1.073125 21.5265625 1.073125 21.5265625 0 22 C-0.66 21.67 -1.32 21.34 -2 21 C-3.27875 21.20625 -4.5575 21.4125 -5.875 21.625 C-8.73109793 22.0144679 -9.78036282 22.0933458 -12.5 20.9375 C-14 19 -14 19 -14.4375 16.0625 C-14 13 -14 13 -12.4375 11 C-10.63201338 8.98518343 -10.63201338 8.98518343 -11.5 5.9375 C-11.665 4.968125 -11.83 3.99875 -12 3 C-8.63613691 -1.64533475 -5.28741885 -1.03860013 0 0 Z M19 10 C17.64560332 12.70879335 17.93498549 15.00933268 18 18 C19.98 18 21.96 18 24 18 C24 16.68 24 15.36 24 14 C23.0409375 13.8453125 23.0409375 13.8453125 22.0625 13.6875 C21.381875 13.460625 20.70125 13.23375 20 13 C19.67 12.01 19.34 11.02 19 10 Z M31 10 C31 13 31 13 31 13 Z M58 10 C58.33 10.99 58.66 11.98 59 13 C59.33 12.01 59.66 11.02 60 10 C59.34 10 58.68 10 58 10 Z M36 13 C34.02 14.32 32.04 15.64 30 17 C30.66 17.66 31.32 18.32 32 19 C33.65 18.34 35.3 17.68 37 17 C36.67 15.68 36.34 14.36 36 13 Z " fill="#890732" transform="translate(383,71)"/>
<path d="M0 0 C2.64 0 5.28 0 8 0 C11.63 10.23 15.26 20.46 19 31 C22.24924659 21.17307776 22.24924659 21.17307776 25.49194336 11.34399414 C25.89550049 10.12832764 26.29905762 8.91266113 26.71484375 7.66015625 C27.33540649 5.78275757 27.33540649 5.78275757 27.96850586 3.86743164 C29 1 29 1 30 0 C32.64 0 35.28 0 38 0 C38 13.2 38 26.4 38 40 C36.02 40 34.04 40 32 40 C31.505 27.625 31.505 27.625 31 15 C30.43410156 16.72089844 29.86820313 18.44179688 29.28515625 20.21484375 C28.544428 22.45578112 27.80353404 24.69666373 27.0625 26.9375 C26.68931641 28.07380859 26.31613281 29.21011719 25.93164062 30.38085938 C25.57392578 31.46044922 25.21621094 32.54003906 24.84765625 33.65234375 C24.3527771 35.15269165 24.3527771 35.15269165 23.84790039 36.68334961 C23 39 23 39 22 40 C19.69 40 17.38 40 15 40 C12.03 31.09 9.06 22.18 6 13 C5.67 21.91 5.34 30.82 5 40 C3.35 40 1.7 40 0 40 C0 26.8 0 13.6 0 0 Z " fill="#870733" transform="translate(625,17)"/>
<path d="M0 0 C3.856875 -0.061875 7.71375 -0.12375 11.6875 -0.1875 C13.4986731 -0.22846802 13.4986731 -0.22846802 15.34643555 -0.27026367 C16.308479 -0.27775635 17.27052246 -0.28524902 18.26171875 -0.29296875 C19.24100342 -0.3086792 20.22028809 -0.32438965 21.22924805 -0.34057617 C24.49107165 0.0603617 26.34294917 1.10327359 29 3 C31.34095049 6.00979349 31.40608603 9.27439717 31.3359375 13.02734375 C30.81403236 16.09201929 29.14783168 17.85216832 27 20 C27.474375 20.61875 27.94875 21.2375 28.4375 21.875 C30.28538307 25.57076613 30.45832799 28.54593231 30.75 32.6171875 C31.03548297 35.33819702 31.77784057 37.55568114 33 40 C30.36 40 27.72 40 25 40 C23.72183198 36.16549593 23.67943403 32.51615335 23.4765625 28.49609375 C23.31929687 27.67238281 23.16203125 26.84867188 23 26 C17.92591989 22.61727992 11.99756732 23.33014132 6 23 C6 28.61 6 34.22 6 40 C4.02 40 2.04 40 0 40 C0 26.8 0 13.6 0 0 Z M6 5 C6 9.29 6 13.58 6 18 C14.2135133 18.79277413 14.2135133 18.79277413 22.078125 17.0625 C23.68274426 15.71859474 23.68274426 15.71859474 25 13 C25.25153259 10.34095531 25.25153259 10.34095531 24 8 C21.48481056 5.44827027 20.17234587 5.0146221 16.546875 4.70703125 C15.29390625 4.74183594 14.0409375 4.77664062 12.75 4.8125 C11.48671875 4.83957031 10.2234375 4.86664062 8.921875 4.89453125 C7.47554687 4.94673828 7.47554687 4.94673828 6 5 Z " fill="#870733" transform="translate(125,17)"/>
<path d="M0 0 C2.98498224 2.01312756 4.79116113 3.74918337 6.6875 6.8125 C6.9375 9.625 6.9375 9.625 6.6875 11.8125 C4.7075 11.8125 2.7275 11.8125 0.6875 11.8125 C0.460625 11.02875 0.23375 10.245 0 9.4375 C-1.09095791 6.68764312 -1.09095791 6.68764312 -3.5 5.4375 C-7.07283192 4.64353735 -9.75861798 5.00784747 -13.3125 5.8125 C-15.59978734 7.65133881 -15.59978734 7.65133881 -15.4375 10.4375 C-15.39625 11.22125 -15.355 12.005 -15.3125 12.8125 C-14.07113281 13.18761719 -12.82976563 13.56273437 -11.55078125 13.94921875 C-9.90859858 14.4653333 -8.26668539 14.98230584 -6.625 15.5 C-5.80837891 15.74427734 -4.99175781 15.98855469 -4.15039062 16.24023438 C0.91782024 17.86124109 4.35673128 19.43795745 7.6875 23.8125 C8.78343355 27.51933407 8.50124082 31.18501836 6.765625 34.65625 C3.95857562 38.37467905 1.18160162 39.94824969 -3.3125 40.8125 C-9.33797646 41.41835229 -13.93514428 40.87021208 -19.3125 37.8125 C-23.19300973 34.13622763 -23.89976322 31.07489391 -24.3125 25.8125 C-22.3325 25.8125 -20.3525 25.8125 -18.3125 25.8125 C-18.044375 26.76125 -17.77625 27.71 -17.5 28.6875 C-16.56263412 32.06517273 -16.56263412 32.06517273 -13.3125 33.8125 C-10.67143458 34.12980856 -10.67143458 34.12980856 -7.8125 34.0625 C-6.8534375 34.06765625 -5.894375 34.0728125 -4.90625 34.078125 C-2.07627103 33.99232609 -2.07627103 33.99232609 0.6875 31.8125 C1.35435938 29.35577108 1.35435938 29.35577108 0.6875 26.8125 C-4.05459339 23.32019197 -9.40847892 22.35980936 -15.03515625 20.97265625 C-18.53195885 19.73481314 -20.13063783 18.78922149 -22.3125 15.8125 C-23.3456471 11.14054806 -22.95901953 7.00607452 -20.6875 2.8125 C-14.81354464 -2.13398873 -7.04541503 -2.52571482 0 0 Z " fill="#880733" transform="translate(692.3125,17.1875)"/>
<path d="M0 0 C2.98498224 2.01312756 4.79116113 3.74918337 6.6875 6.8125 C6.9375 9.625 6.9375 9.625 6.6875 11.8125 C4.7075 11.8125 2.7275 11.8125 0.6875 11.8125 C0.460625 11.02875 0.23375 10.245 0 9.4375 C-1.09095791 6.68764312 -1.09095791 6.68764312 -3.5 5.4375 C-7.07283192 4.64353735 -9.75861798 5.00784747 -13.3125 5.8125 C-15.59978734 7.65133881 -15.59978734 7.65133881 -15.4375 10.4375 C-15.39625 11.22125 -15.355 12.005 -15.3125 12.8125 C-14.07113281 13.19921875 -12.82976562 13.5859375 -11.55078125 13.984375 C-9.90867265 14.50984975 -8.2667555 15.03592306 -6.625 15.5625 C-5.80837891 15.81515625 -4.99175781 16.0678125 -4.15039062 16.328125 C0.48901413 17.83076622 4.18016701 19.26366011 7.6875 22.8125 C8.96041125 27.0290185 8.83023096 29.33673014 7.5625 33.5625 C5.25765285 37.5575684 3.18192194 39.08066546 -1.203125 40.3671875 C-7.73443438 41.74601948 -13.45732675 41.14191224 -19.3125 37.8125 C-22.5892528 34.78780511 -23.26770966 33.49555266 -23.5625 29 C-23.43875 27.4221875 -23.43875 27.4221875 -23.3125 25.8125 C-21.6625 25.8125 -20.0125 25.8125 -18.3125 25.8125 C-17.879375 26.76125 -17.44625 27.71 -17 28.6875 C-15.51947799 32.01291937 -15.51947799 32.01291937 -12.3125 33.8125 C-9.63750707 34.12962276 -9.63750707 34.12962276 -6.75 34.0625 C-5.29400391 34.07023437 -5.29400391 34.07023437 -3.80859375 34.078125 C-1.13957063 34.05844496 -1.13957063 34.05844496 0.6875 31.8125 C0.85431109 28.72902174 0.85431109 28.72902174 0.6875 25.8125 C-0.55386719 25.43738281 -1.79523438 25.06226562 -3.07421875 24.67578125 C-4.71640142 24.1596667 -6.35831461 23.64269416 -8 23.125 C-8.81662109 22.88072266 -9.63324219 22.63644531 -10.47460938 22.38476562 C-15.54204689 20.76400626 -18.98522134 19.18910008 -22.3125 14.8125 C-23.21697069 11.70537716 -23.02634368 8.95912293 -22.3125 5.8125 C-16.7601757 -1.64347834 -8.49137839 -3.04407905 0 0 Z " fill="#870733" transform="translate(388.3125,17.1875)"/>
<path d="M0 0 C2.64 0 5.28 0 8 0 C17.71300865 26.75125788 17.71300865 26.75125788 22 40 C19.69 40 17.38 40 15 40 C14.3291288 38.3767313 13.66342971 36.75132422 13 35.125 C12.62875 34.22007813 12.2575 33.31515625 11.875 32.3828125 C11 30 11 30 11 28 C6.38 28.33 1.76 28.66 -3 29 C-4.32 32.63 -5.64 36.26 -7 40 C-9.31 40 -11.62 40 -14 40 C-11.57334561 31.28793422 -8.45432842 22.84655403 -5.3125 14.375 C-4.79594774 12.97536233 -4.27966971 11.57562342 -3.76367188 10.17578125 C-2.51226966 6.78268275 -1.25717674 3.39096389 0 0 Z M3 9 C2.32739649 10.76858691 1.66211605 12.53996016 1 14.3125 C0.62875 15.29863281 0.2575 16.28476562 -0.125 17.30078125 C-1.15418502 20.00271656 -1.15418502 20.00271656 -1 23 C2.3 23 5.6 23 9 23 C8.52188823 21.22888156 8.0424722 19.45811517 7.5625 17.6875 C7.29566406 16.70136719 7.02882813 15.71523438 6.75390625 14.69921875 C6.21920575 12.78482474 5.62855462 10.88566385 5 9 C4.34 9 3.68 9 3 9 Z " fill="#880733" transform="translate(569,17)"/>
<path d="M0 0 C2.4375 2 2.4375 2 4 4 C3.34 6.31 2.68 8.62 2 11 C1.34 11 0.68 11 0 11 C0.66 13.31 1.32 15.62 2 18 C2.66 18 3.32 18 4 18 C4.226875 16.906875 4.45375 15.81375 4.6875 14.6875 C6 11 6 11 8.3125 9 C11.40606861 7.8489047 12.90053287 7.96684429 16 9 C17 10 17 10 17.25 12.4375 C17.1675 13.283125 17.085 14.12875 17 15 C14 17 14 17 11 17 C11 17.66 11 18.32 11 19 C13.97 18.34 16.94 17.68 20 17 C19.34 16.01 18.68 15.02 18 14 C18.375 11.3125 18.375 11.3125 19 9 C24.75 7.875 24.75 7.875 27 9 C27.08082094 10.95766281 27.13910778 12.91626728 27.1875 14.875 C27.23970703 16.51082031 27.23970703 16.51082031 27.29296875 18.1796875 C27.19628906 19.11039063 27.09960938 20.04109375 27 21 C23.69005531 23.2066298 23.40190187 23.18179105 19.75 22.5625 C15.61614894 21.97771131 12.13499131 22.35137391 8 23 C6.66431979 22.67619874 5.33076989 22.34342449 4 22 C1.99053778 22.27050453 -0.01354224 22.59367909 -2 23 C-3.32 20.36 -4.64 17.72 -6 15 C-6.66 17.31 -7.32 19.62 -8 22 C-9.65 22.33 -11.3 22.66 -13 23 C-12.09214782 12.49209391 -12.09214782 12.49209391 -11.375 7.5 C-10.75833014 4.03251898 -10.75833014 4.03251898 -12 1 C-7.92627115 0.01242937 -4.18508673 -0.38046243 0 0 Z M-4 3 C-4.33 5.31 -4.66 7.62 -5 10 C-3.35444301 8.77190909 -3.35444301 8.77190909 -2 7 C-2.22757731 4.83700789 -2.22757731 4.83700789 -3 3 C-3.33 3 -3.66 3 -4 3 Z M11 11 C12 14 12 14 12 14 Z " fill="#870733" transform="translate(271,70)"/>
<path d="M0 0 C0.99 0.66 1.98 1.32 3 2 C3.99 1.34 4.98 0.68 6 0 C9.70544587 -0.19850603 12.47005387 -0.17664871 16 1 C15.34 4.3 14.68 7.6 14 11 C14.66 11 15.32 11 16 11 C16.33 7.7 16.66 4.4 17 1 C24.625 0 24.625 0 28 0 C28.495 0.99 28.495 0.99 29 2 C29.99 1.34 30.98 0.68 32 0 C34.5625 -0.25 34.5625 -0.25 37 0 C37.66 0.66 38.32 1.32 39 2 C38.625 4.625 38.625 4.625 38 7 C35.525 6.505 35.525 6.505 33 6 C33 7.32 33 8.64 33 10 C34.65 10 36.3 10 38 10 C38 10.99 38 11.98 38 13 C35.29165469 14.77084117 34.10735541 15.01052504 30.8125 14.6875 C28 14 28 14 27 13 C26.95907063 10.66702567 26.95758277 8.33294775 27 6 C26.01 6 25.02 6 24 6 C23.34 8.64 22.68 11.28 22 14 C18.94152152 14.54372951 16.11227195 15 13 15 C12.27683594 15.02320312 11.55367188 15.04640625 10.80859375 15.0703125 C9.63490234 15.09738281 9.63490234 15.09738281 8.4375 15.125 C7.25994141 15.15980469 7.25994141 15.15980469 6.05859375 15.1953125 C4 15 4 15 2 13 C1.375 10.375 1.375 10.375 1 8 C-0.65 8.66 -2.3 9.32 -4 10 C-2.35 10 -0.7 10 1 10 C1 10.99 1 11.98 1 13 C-1.70834531 14.77084117 -2.89264459 15.01052504 -6.1875 14.6875 C-9 14 -9 14 -10 13 C-10.43352411 9.9467516 -10.47437699 7.04880495 -10 4 C-7.00260322 0.48876377 -4.59345372 -0.72528217 0 0 Z M-4 3 C-4.33 4.32 -4.66 5.64 -5 7 C-4.34 6.67 -3.68 6.34 -3 6 C-3.33 5.01 -3.66 4.02 -4 3 Z M9 3 C6.8480563 6.22791555 6.79913557 7.28400809 7 11 C7.66 11 8.32 11 9 11 C9.33 8.36 9.66 5.72 10 3 C9.67 3 9.34 3 9 3 Z " fill="#880733" transform="translate(309,78)"/>
<path d="M0 0 C2.62780781 1.45989323 3.67012095 2.70449932 5.25 5.25 C5.59057617 7.54003906 5.59057617 7.54003906 5.54296875 10.015625 C5.53330078 10.90507813 5.52363281 11.79453125 5.51367188 12.7109375 C5.48853516 13.63132812 5.46339844 14.55171875 5.4375 15.5 C5.41719727 16.90378906 5.41719727 16.90378906 5.39648438 18.3359375 C5.36119954 20.64121327 5.31190281 22.9453106 5.25 25.25 C6.24 25.25 7.23 25.25 8.25 25.25 C7.92 26.9 7.59 28.55 7.25 30.25 C1.5 29.375 1.5 29.375 -0.75 28.25 C-1.8328125 28.7140625 -1.8328125 28.7140625 -2.9375 29.1875 C-6.44364719 30.51204449 -9.02354496 30.5827192 -12.75 30.25 C-17.35 28.05 -17.35 28.05 -18.75 25.25 C-19.2183789 17.87303231 -19.2183789 17.87303231 -17.5078125 15.59765625 C-15.5053291 14.06241898 -13.78113525 13.37229798 -11.375 12.625 C-10.58480469 12.37878906 -9.79460937 12.13257813 -8.98046875 11.87890625 C-6.5871601 11.20408542 -4.20559016 10.64606293 -1.75 10.25 C-1.75 8.93 -1.75 7.61 -1.75 6.25 C-6.28140653 5.31619039 -6.28140653 5.31619039 -10.75 6.25 C-11.08 7.24 -11.41 8.23 -11.75 9.25 C-13.73 9.25 -15.71 9.25 -17.75 9.25 C-17.26053485 3.74351702 -17.26053485 3.74351702 -14.875 1.4375 C-10.03093352 -1.26947833 -5.32114404 -1.4512211 0 0 Z M-7.25 16.5 C-8.0440625 16.73203125 -8.838125 16.9640625 -9.65625 17.203125 C-12.21152265 18.48076132 -12.75302665 19.62752662 -13.75 22.25 C-12.71431405 23.95735301 -12.71431405 23.95735301 -10.75 25.25 C-7.31890417 25.12746086 -4.76779446 24.87380951 -1.8125 23.0625 C-0.27726741 20.44357381 -0.5519432 18.22085195 -0.75 15.25 C-3.13216453 15.25 -4.97078149 15.80439435 -7.25 16.5 Z " fill="#870733" transform="translate(267.75,27.75)"/>
<path d="M0 0 C1.98 0 3.96 0 6 0 C6.33 3.96 6.66 7.92 7 12 C8.65 11.34 10.3 10.68 12 10 C14.09765625 9.8828125 14.09765625 9.8828125 16.0625 10.125 C16.71347656 10.18945312 17.36445313 10.25390625 18.03515625 10.3203125 C20.85211001 11.29476569 22.11821082 12.70049179 24 15 C24.45410156 17.74902344 24.45410156 17.74902344 24.390625 20.859375 C24.37128906 22.53193359 24.37128906 22.53193359 24.3515625 24.23828125 C24.31804687 25.39714844 24.28453125 26.55601563 24.25 27.75 C24.23195313 28.92433594 24.21390625 30.09867188 24.1953125 31.30859375 C24.1481912 34.2065534 24.08241305 37.10286418 24 40 C22.02 40 20.04 40 18 40 C17.505 28.615 17.505 28.615 17 17 C15.02 16.67 13.04 16.34 11 16 C8.91869363 17.50715289 8.14386782 18.71226437 7 21 C6.84932786 22.4465242 6.75138964 23.8987934 6.68359375 25.3515625 C6.64169922 26.20234375 6.59980469 27.053125 6.55664062 27.9296875 C6.51732422 28.81914063 6.47800781 29.70859375 6.4375 30.625 C6.37272461 31.97078125 6.37272461 31.97078125 6.30664062 33.34375 C6.20043139 35.56234283 6.09838806 37.7810488 6 40 C4.02 40 2.04 40 0 40 C0 26.8 0 13.6 0 0 Z " fill="#870730" transform="translate(325,17)"/>
<path d="M0 0 C4.1444279 3.0862761 5.85267139 5.99347516 7 11 C7 12.65 7 14.3 7 16 C0.07 16 -6.86 16 -14 16 C-13.34 18.31 -12.68 20.62 -12 23 C-7.31515809 23.98116854 -7.31515809 23.98116854 -2.6875 23.25 C-0.71127073 21.93353552 -0.71127073 21.93353552 1 19 C3.625 18.8125 3.625 18.8125 6 19 C5.73517462 22.88410563 5.46605993 24.5462048 2.625 27.3125 C-1.66803355 30.07230728 -4.9609054 30.34163353 -10 30 C-14.13941246 28.40791829 -16.76848048 26.87579706 -19 23 C-20.74440752 17.14026489 -20.88333968 11.29015002 -18.4375 5.625 C-16.756206 2.67979617 -15.79960447 1.8703323 -12.8125 -0.0625 C-8.20795706 -1.19476466 -4.55483709 -1.39294267 0 0 Z M-12 6 C-12.66 7.98 -13.32 9.96 -14 12 C-9.05 12 -4.1 12 1 12 C-1.04222237 6.89444407 -1.41142363 6.23546028 -6 4 C-8.35997933 4 -9.95539247 4.90289352 -12 6 Z " fill="#880732" transform="translate(181,28)"/>
<path d="M0 0 C3.42518187 1.96765767 4.67585767 3.28997395 6.3125 6.875 C7 10 7 10 7 16 C0.07 16 -6.86 16 -14 16 C-11.66151858 21.91731018 -11.66151858 21.91731018 -8 24 C-4.96003468 23.9934389 -4.96003468 23.9934389 -2 23 C-0.99357052 21.67151309 0.00692179 20.33849671 1 19 C3.6875 18.75 3.6875 18.75 6 19 C5.73517462 22.88410563 5.46605993 24.5462048 2.625 27.3125 C-1.66803355 30.07230728 -4.9609054 30.34163353 -10 30 C-13.63146346 28.67311912 -15.49997784 27.6724436 -17.8125 24.5625 C-20.51296971 18.73517062 -20.80755446 13.50766911 -18.8125 7.3125 C-14.42186852 -0.71175753 -8.34990832 -1.8783625 0 0 Z M-12 7 C-12.66 8.65 -13.32 10.3 -14 12 C-9.05 12 -4.1 12 1 12 C-0.0231411 7.72090916 -0.0231411 7.72090916 -3 5 C-6.80564825 3.22403082 -8.83308125 4.49980099 -12 7 Z " fill="#870733" transform="translate(420,28)"/>
<path d="M0 0 C3.97108701 2.36575396 5.85325363 4.51726419 7 9 C7 11.31 7 13.62 7 16 C0.07 16 -6.86 16 -14 16 C-11.66151858 21.91731018 -11.66151858 21.91731018 -8 24 C-4.96003468 23.9934389 -4.96003468 23.9934389 -2 23 C-0.99357052 21.67151309 0.00692179 20.33849671 1 19 C3.6875 18.75 3.6875 18.75 6 19 C5.73517462 22.88410563 5.46605993 24.5462048 2.625 27.3125 C-1.66803355 30.07230728 -4.9609054 30.34163353 -10 30 C-13.39989276 28.75773149 -15.42389869 27.65556355 -17.8125 24.9375 C-20.04760513 19.40855573 -20.30293461 14.05322344 -19.4375 8.1875 C-17.5682483 4.04263754 -15.72094936 2.58188323 -12 0 C-7.81597182 -1.39467606 -4.27099461 -0.96829228 0 0 Z M-12 7 C-12.66 8.65 -13.32 10.3 -14 12 C-9.05 12 -4.1 12 1 12 C0.58267722 7.01067667 0.58267722 7.01067667 -2.4375 5.1875 C-6.65274284 3.23409478 -8.32906387 4.33857131 -12 7 Z " fill="#870733" transform="translate(238,28)"/>
<path d="M0 0 C2.62985377 0.61878912 4.51352054 0.06464421 7.125 -0.5 C8.125 0.5 8.125 0.5 8.25 3.875 C8.125 7.5 8.125 7.5 7.125 10.5 C7.785 10.5 8.445 10.5 9.125 10.5 C9.2075 9.241875 9.29 7.98375 9.375 6.6875 C9.7465774 3.85547769 9.94815023 2.72446317 11.75 0.4375 C15.16614492 -0.91097826 17.61231164 -0.36160281 21.125 0.5 C21.455 1.16 21.785 1.82 22.125 2.5 C22.82625 1.984375 23.5275 1.46875 24.25 0.9375 C27.73387535 -0.80443767 29.4233569 -0.44693195 33.125 0.5 C33.4375 3.3125 33.4375 3.3125 33.125 6.5 C30.625 8.375 30.625 8.375 28.125 9.5 C31.6469721 9.58004482 34.74481469 9.54005702 38.125 8.5 C38.62 10.975 38.62 10.975 39.125 13.5 C37.3125 14.125 37.3125 14.125 35.125 14.5 C34.135 13.84 33.145 13.18 32.125 12.5 C31.135 13.16 30.145 13.82 29.125 14.5 C25.4375 14.125 25.4375 14.125 22.125 13.5 C22.125 12.84 22.125 12.18 22.125 11.5 C21.403125 11.995 20.68125 12.49 19.9375 13 C16.92893392 14.60456857 15.466663 14.9396925 12.125 14.5 C11.135 13.84 10.145 13.18 9.125 12.5 C8.135 13.16 7.145 13.82 6.125 14.5 C4.805 14.17 3.485 13.84 2.125 13.5 C2.125 10.53 2.125 7.56 2.125 4.5 C1.465 7.47 0.805 10.44 0.125 13.5 C-1.855 13.83 -3.835 14.16 -5.875 14.5 C-5.545 9.88 -5.215 5.26 -4.875 0.5 C-1.875 -0.5 -1.875 -0.5 0 0 Z M27.125 2.5 C28.125 5.5 28.125 5.5 28.125 5.5 Z M15.125 3.5 C15.125 5.81 15.125 8.12 15.125 10.5 C17.105 10.5 19.085 10.5 21.125 10.5 C21.125 9.18 21.125 7.86 21.125 6.5 C20.320625 6.37625 19.51625 6.2525 18.6875 6.125 C17.841875 5.91875 16.99625 5.7125 16.125 5.5 C15.795 4.84 15.465 4.18 15.125 3.5 Z " fill="#890732" transform="translate(452.875,78.5)"/>
<path d="M0 0 C3.0625 2.3125 3.0625 2.3125 5 5 C5 6.32 5 7.64 5 9 C3.02 9 1.04 9 -1 9 C-1.33 7.68 -1.66 6.36 -2 5 C-4.64 5.33 -7.28 5.66 -10 6 C-10.33 7.32 -10.66 8.64 -11 10 C-10.19175781 10.15855469 -9.38351563 10.31710938 -8.55078125 10.48046875 C2.70362013 12.93770234 2.70362013 12.93770234 6 18 C6.625 21 6.625 21 6 24 C3.44975635 27.10164769 1.82300753 28.72566416 -2 30 C-7.67475291 30.37211494 -11.03463692 30.07379619 -16 27 C-18 25 -18 25 -18.125 22.375 C-18.08375 21.59125 -18.0425 20.8075 -18 20 C-15.25 19.75 -15.25 19.75 -12 20 C-11.360625 20.680625 -10.72125 21.36125 -10.0625 22.0625 C-9.381875 22.701875 -8.70125 23.34125 -8 24 C-4.30567489 23.85387105 -4.30567489 23.85387105 -1 23 C-1.04200014 21.03627705 -1.04200014 21.03627705 -2 19 C-4.67243958 17.73888073 -4.67243958 17.73888073 -7.875 16.9375 C-14.91417669 14.96144196 -14.91417669 14.96144196 -17 12 C-17.76975945 5.07216495 -17.76975945 5.07216495 -15.25 1.5625 C-10.52787906 -1.71675065 -5.41471818 -1.41630529 0 0 Z " fill="#880732" transform="translate(209,28)"/>
<path d="M0 0 C3.56042257 2.19685648 5.49792009 4.12621498 7 8 C7.30078125 11.27734375 7.30078125 11.27734375 7.3125 14.9375 C7.33763672 16.74541016 7.33763672 16.74541016 7.36328125 18.58984375 C6.9728642 22.25472634 6.21038399 24.08774052 4 27 C-0.78757946 30.22883266 -4.40805268 30.53256641 -10 30 C-13.20824247 28.50282018 -15.72932114 26.72481464 -18 24 C-19.98158719 18.05523844 -19.8141819 11.32041841 -17.75 5.4375 C-13.02284306 -1.1467543 -7.49939587 -1.71339449 0 0 Z M-9.75 4.8125 C-13.09058136 8.06028744 -13.83217657 11.40011236 -14 16 C-13.29174772 19.547943 -12.0106315 22.1914948 -9.125 24.5 C-6.33318407 25.15689787 -4.70220732 24.97002314 -2 24 C1.07877816 21.25109093 1.70322657 18.08394804 2.05859375 14.03125 C1.96149139 10.66503481 0.97990584 8.68245307 -1 6 C-4.40408633 4.14995308 -6.02061865 3.71063733 -9.75 4.8125 Z " fill="#880733" transform="translate(505,28)"/>
<path d="M0 0 C3.2437025 2.43277687 4.68700289 3.91654848 5.8125 7.8125 C5.874375 8.534375 5.93625 9.25625 6 10 C4.02 10 2.04 10 0 10 C-0.226875 9.360625 -0.45375 8.72125 -0.6875 8.0625 C-1.8390904 5.77893579 -1.8390904 5.77893579 -4.375 5.1875 C-6.89578951 5.00744361 -8.6203624 5.20678747 -11 6 C-11.89109922 9.07251011 -12.16339724 11.86647393 -12.1875 15.0625 C-12.20167969 15.91972656 -12.21585937 16.77695312 -12.23046875 17.66015625 C-12.15846085 20.27198309 -12.15846085 20.27198309 -10 23 C-7.07665027 23.91778291 -7.07665027 23.91778291 -4 24 C-0.75150023 22.27773504 -0.75150023 22.27773504 0 19 C1.98 19 3.96 19 6 19 C5.68031467 22.51653861 5.37757864 24.53431968 3.125 27.3125 C-0.33189841 30.05768403 -3.58623411 30.3493316 -7.9375 30.27734375 C-11.42504073 29.8083752 -13.4041149 28.29403799 -16 26 C-19.57759624 20.99136527 -19.69530804 15.9383065 -19 10 C-18.07291104 6.39913274 -16.75634865 3.70907686 -14 1.125 C-9.28526557 -1.52703812 -5.12079221 -1.31164151 0 0 Z " fill="#870732" transform="translate(449,28)"/>
<path d="M0 0 C2.47713033 2.77738855 2.81267763 4.64843864 3.0625 8.3125 C1.0825 8.3125 -0.8975 8.3125 -2.9375 8.3125 C-3.185 7.673125 -3.4325 7.03375 -3.6875 6.375 C-4.75675227 4.2063135 -4.75675227 4.2063135 -6.75 3.375 C-9.86745926 3.28592974 -11.46071848 4.50511889 -13.9375 6.3125 C-15.10718953 8.65187907 -15.07114221 10.08619368 -15.0625 12.6875 C-15.06507813 13.45835938 -15.06765625 14.22921875 -15.0703125 15.0234375 C-14.94139788 17.2453189 -14.55133717 19.17868508 -13.9375 21.3125 C-10.68110341 22.25521002 -10.68110341 22.25521002 -6.9375 22.3125 C-4.29162766 19.91664714 -4.29162766 19.91664714 -1.9375 17.3125 C0.875 17 0.875 17 3.0625 17.3125 C2.74281467 20.82903861 2.44007864 22.84681968 0.1875 25.625 C-3.66854 28.68714941 -7.15896225 28.63646866 -11.9375 28.3125 C-16.15324207 26.98991425 -18.19425197 25.40811666 -20.3125 21.625 C-22.79439672 15.95506021 -22.66385135 11.49155404 -20.6875 5.5625 C-18.72537044 1.9185451 -17.00632859 -0.72697244 -13.1875 -2.5 C-8.18536132 -2.91684489 -4.31285647 -2.4775984 0 0 Z " fill="#860733" transform="translate(317.9375,29.6875)"/>
<path d="M0 0 C1.61206055 1.16479492 1.61206055 1.16479492 3 3 C3.34057617 5.72729492 3.34057617 5.72729492 3.29296875 8.98046875 C3.28330078 10.14384766 3.27363281 11.30722656 3.26367188 12.50585938 C3.23853516 13.72080078 3.21339844 14.93574219 3.1875 16.1875 C3.16719727 18.02731445 3.16719727 18.02731445 3.14648438 19.90429688 C3.11108741 22.93663664 3.0617076 25.96809996 3 29 C1.35 29 -0.3 29 -2 29 C-2.01458252 28.34402832 -2.02916504 27.68805664 -2.04418945 27.01220703 C-2.11851414 24.04919969 -2.21522369 21.08733883 -2.3125 18.125 C-2.33505859 17.09246094 -2.35761719 16.05992188 -2.38085938 14.99609375 C-2.41630859 14.00996094 -2.45175781 13.02382813 -2.48828125 12.0078125 C-2.51446533 11.09660645 -2.54064941 10.18540039 -2.56762695 9.24658203 C-2.71031006 8.50520996 -2.85299316 7.76383789 -3 7 C-5.74605843 4.75378427 -5.74605843 4.75378427 -8.5 5.0625 C-11.96450566 6.36168962 -12.45955672 7.64139972 -14 11 C-14.49014126 14.09929526 -14.60093703 17.17892032 -14.6875 20.3125 C-14.72166016 21.14845703 -14.75582031 21.98441406 -14.79101562 22.84570312 C-14.87305461 24.89667772 -14.9382151 26.94831538 -15 29 C-16.65 29 -18.3 29 -20 29 C-20 19.43 -20 9.86 -20 0 C-18.35 0 -16.7 0 -15 0 C-14.67 0.66 -14.34 1.32 -14 2 C-13.0409375 1.2265625 -13.0409375 1.2265625 -12.0625 0.4375 C-7.93389114 -1.50041845 -4.35724367 -1.28922191 0 0 Z " fill="#870733" transform="translate(538,28)"/>
<path d="M0 0 C0 2.64 0 5.28 0 8 C1.98 8 3.96 8 6 8 C6 9.32 6 10.64 6 12 C4.02 12 2.04 12 0 12 C0.33 18.27 0.66 24.54 1 31 C2.65 31.33 4.3 31.66 6 32 C6.33 33.65 6.66 35.3 7 37 C3.98131566 38.50934217 1.32702771 38.17510672 -2 38 C-2.99 37.34 -3.98 36.68 -5 36 C-5.34057617 33.56982422 -5.34057617 33.56982422 -5.29296875 30.5546875 C-5.28330078 29.47832031 -5.27363281 28.40195312 -5.26367188 27.29296875 C-5.23853516 26.16503906 -5.21339844 25.03710938 -5.1875 23.875 C-5.16719727 22.17150391 -5.16719727 22.17150391 -5.14648438 20.43359375 C-5.11104319 17.62192613 -5.06163517 14.81119583 -5 12 C-6.32 12 -7.64 12 -9 12 C-9 10.68 -9 9.36 -9 8 C-7.68 8 -6.36 8 -5 8 C-5 6.02 -5 4.04 -5 2 C-1.125 0 -1.125 0 0 0 Z " fill="#860733" transform="translate(465,20)"/>
<path d="M0 0 C1.98 0 3.96 0 6 0 C6 13.2 6 26.4 6 40 C4.02 40 2.04 40 0 40 C0 26.8 0 13.6 0 0 Z " fill="#860733" transform="translate(611,17)"/>
<path d="M0 0 C1.98 0 3.96 0 6 0 C6 13.2 6 26.4 6 40 C4.02 40 2.04 40 0 40 C0 26.8 0 13.6 0 0 Z " fill="#860733" transform="translate(596,17)"/>
<path d="M0 0 C0 1.98 0 3.96 0 6 C-2.31 6.33 -4.62 6.66 -7 7 C-7.9300889 9.7902667 -8.18698769 11.76529542 -8.31640625 14.66796875 C-8.35830078 15.56064453 -8.40019531 16.45332031 -8.44335938 17.37304688 C-8.50233398 18.76620117 -8.50233398 18.76620117 -8.5625 20.1875 C-8.60568359 21.12787109 -8.64886719 22.06824219 -8.69335938 23.03710938 C-8.79938665 25.35792854 -8.90145029 27.67885325 -9 30 C-10.98 30 -12.96 30 -15 30 C-15 20.43 -15 10.86 -15 1 C-13.35 1 -11.7 1 -10 1 C-9.67 1.66 -9.34 2.32 -9 3 C-8.443125 2.505 -7.88625 2.01 -7.3125 1.5 C-4.61837017 -0.24754367 -3.14624993 -0.26218749 0 0 Z " fill="#880733" transform="translate(295,27)"/>
<path d="M0 0 C1.21236328 0.02707031 1.21236328 0.02707031 2.44921875 0.0546875 C3.37154297 0.08949219 3.37154297 0.08949219 4.3125 0.125 C3.6380814 15.7994186 3.6380814 15.7994186 -1.6875 21.125 C-4.8125 21.25 -4.8125 21.25 -7.6875 21.125 C-8.0175 20.135 -8.3475 19.145 -8.6875 18.125 C-8.3575 17.465 -8.0275 16.805 -7.6875 16.125 C-7.0275 16.125 -6.3675 16.125 -5.6875 16.125 C-5.6875 15.465 -5.6875 14.805 -5.6875 14.125 C-6.6775 13.795 -7.6675 13.465 -8.6875 13.125 C-9.70396402 8.7542047 -9.89701146 6.10212063 -7.6875 2.125 C-4.48369983 -0.01086678 -3.66810033 -0.10632175 0 0 Z M-2.6875 3.125 C-4.04189668 5.83379335 -3.75251451 8.13433268 -3.6875 11.125 C-3.0275 11.125 -2.3675 11.125 -1.6875 11.125 C-1.3575 8.485 -1.0275 5.845 -0.6875 3.125 C-1.3475 3.125 -2.0075 3.125 -2.6875 3.125 Z " fill="#870733" transform="translate(246.6875,77.875)"/>
<path d="M0 0 C1.98 0 3.96 0 6 0 C6 2.64 6 5.28 6 8 C6.9590625 8.1546875 6.9590625 8.1546875 7.9375 8.3125 C8.9584375 8.6528125 8.9584375 8.6528125 10 9 C11.31223496 12.93670488 10.24296256 15.12488144 9 19 C9.99 19.33 10.98 19.66 12 20 C10.25 21.5625 10.25 21.5625 8 23 C6.68 22.67 5.36 22.34 4 22 C4 19.03 4 16.06 4 13 C3.34 15.97 2.68 18.94 2 22 C0.35 22.33 -1.3 22.66 -3 23 C-3.16898112 17.64189031 -2.56511422 12.80650828 -1.5 7.5625 C-1.35691406 6.83095703 -1.21382813 6.09941406 -1.06640625 5.34570312 C-0.71678704 3.56264514 -0.35922312 1.78114797 0 0 Z " fill="#860733" transform="translate(351,70)"/>
<path d="M0 0 C1.98 0 3.96 0 6 0 C6 9.57 6 19.14 6 29 C4.02 29 2.04 29 0 29 C0 19.43 0 9.86 0 0 Z " fill="#860734" transform="translate(475,28)"/>
<path d="M0 0 C0.33 0.66 0.66 1.32 1 2 C-0.45537568 2.83848804 -1.91440373 3.67063934 -3.375 4.5 C-4.59316406 5.19609375 -4.59316406 5.19609375 -5.8359375 5.90625 C-8 7 -8 7 -10 7 C-10.33 7.66 -10.66 8.32 -11 9 C-13.0625 10.125 -13.0625 10.125 -15 11 C-14.8125 9.1875 -14.8125 9.1875 -14 7 C-9.82142857 4 -9.82142857 4 -7 4 C-6.67 3.34 -6.34 2.68 -6 2 C-4.02111039 1.27306096 -2.02045442 0.60183749 0 0 Z " fill="#CE2966" transform="translate(72,71)"/>
<path d="M0 0 C1.65 0.33 3.3 0.66 5 1 C4.67 2.65 4.34 4.3 4 6 C2.35 5.67 0.7 5.34 -1 5 C-0.67 3.35 -0.34 1.7 0 0 Z " fill="#860733" transform="translate(476,17)"/>
<path d="M0 0 C2.125 0.375 2.125 0.375 4 1 C4 2.32 4 3.64 4 5 C2.35 5.33 0.7 5.66 -1 6 C-1.625 4.125 -1.625 4.125 -2 2 C-1.34 1.34 -0.68 0.68 0 0 Z " fill="#8A0732" transform="translate(218,71)"/>
<path d="M0 0 C0.99 0.33 1.98 0.66 3 1 C2.01 1.495 2.01 1.495 1 2 C0.67 2.66 0.34 3.32 0 4 C-2.0625 5.125 -2.0625 5.125 -4 6 C-3.6875 4.125 -3.6875 4.125 -3 2 C-2.01 1.34 -1.02 0.68 0 0 Z " fill="#C9336E" transform="translate(61,76)"/>
</svg>
